<svg width="50" height="50" viewBox="0 0 50 50" fill="none" xmlns="http://www.w3.org/2000/svg">
<path d="M12.4993 31.25C11.9468 31.25 11.4169 31.0305 11.0262 30.6398C10.6355 30.2491 10.416 29.7192 10.416 29.1667V20.8333C10.416 20.2808 10.6355 19.7509 11.0262 19.3602C11.4169 18.9695 11.9468 18.75 12.4993 18.75H24.9993V31.25H12.4993Z" fill="#10BC10"/>
<path fill-rule="evenodd" clip-rule="evenodd" d="M37.4994 12.5H10.416C8.75841 12.5 7.1687 13.1585 5.9966 14.3306C4.8245 15.5027 4.16602 17.0924 4.16602 18.75V31.25C4.16602 32.9076 4.8245 34.4973 5.9966 35.6694C7.1687 36.8415 8.75841 37.5 10.416 37.5H37.4994C39.157 37.5 40.7467 36.8415 41.9188 35.6694C43.0909 34.4973 43.7494 32.9076 43.7494 31.25C44.3019 31.25 44.8318 31.0305 45.2225 30.6398C45.6132 30.2491 45.8327 29.7192 45.8327 29.1667V20.8333C45.8327 20.2808 45.6132 19.7509 45.2225 19.3602C44.8318 18.9695 44.3019 18.75 43.7494 18.75C43.7494 17.0924 43.0909 15.5027 41.9188 14.3306C40.7467 13.1585 39.157 12.5 37.4994 12.5ZM37.4994 16.6667H10.416C9.86348 16.6667 9.33358 16.8862 8.94288 17.2769C8.55218 17.6676 8.33268 18.1975 8.33268 18.75V31.25C8.33268 31.8025 8.55218 32.3324 8.94288 32.7231C9.33358 33.1138 9.86348 33.3333 10.416 33.3333H37.4994C38.0519 33.3333 38.5818 33.1138 38.9725 32.7231C39.3632 32.3324 39.5827 31.8025 39.5827 31.25V18.75C39.5827 18.1975 39.3632 17.6676 38.9725 17.2769C38.5818 16.8862 38.0519 16.6667 37.4994 16.6667Z" fill="black"/>
</svg>
