<svg width="30" height="30" viewBox="0 0 30 30" fill="none" xmlns="http://www.w3.org/2000/svg">
<path d="M15 28.125C7.7625 28.125 1.875 22.2375 1.875 15C1.875 7.7625 7.7625 1.875 15 1.875C22.2375 1.875 28.125 7.7625 28.125 15C28.125 22.2375 22.2375 28.125 15 28.125ZM15 3.75C8.79375 3.75 3.75 8.79375 3.75 15C3.75 21.2062 8.79375 26.25 15 26.25C21.2062 26.25 26.25 21.2062 26.25 15C26.25 8.79375 21.2062 3.75 15 3.75Z" fill="#999999"/>
<path d="M18.7501 19.6875C18.5813 19.6875 18.4126 19.65 18.2626 19.5563L13.5751 16.7438C13.4362 16.6603 13.3216 16.542 13.2427 16.4006C13.1637 16.2591 13.1232 16.0995 13.1251 15.9375V8.4375C13.1251 7.9125 13.5376 7.5 14.0626 7.5C14.5876 7.5 15.0001 7.9125 15.0001 8.4375V15.4125L19.2376 17.9437C19.4121 18.0507 19.547 18.2117 19.6218 18.4022C19.6966 18.5928 19.7073 18.8025 19.6522 18.9997C19.5971 19.1968 19.4792 19.3706 19.3164 19.4948C19.1536 19.6189 18.9548 19.6866 18.7501 19.6875Z" fill="#999999"/>
</svg>
