<svg width="256" height="256" viewBox="0 0 256 256" fill="none" xmlns="http://www.w3.org/2000/svg">
<path d="M205.661 194.34C206.404 195.083 206.993 195.966 207.396 196.937C207.798 197.908 208.005 198.949 208.005 200C208.005 201.051 207.798 202.092 207.396 203.063C206.993 204.034 206.404 204.917 205.661 205.66C204.917 206.403 204.035 206.993 203.064 207.395C202.093 207.797 201.052 208.005 200.001 208.005C198.949 208.005 197.909 207.797 196.937 207.395C195.966 206.993 195.084 206.403 194.341 205.66L128.001 139.31L61.6605 205.66C60.1594 207.161 58.1235 208.005 56.0005 208.005C53.8776 208.005 51.8417 207.161 50.3405 205.66C48.8394 204.159 47.9961 202.123 47.9961 200C47.9961 197.877 48.8394 195.841 50.3405 194.34L116.691 128L50.3405 61.6601C48.8394 60.1589 47.9961 58.123 47.9961 56.0001C47.9961 53.8771 48.8394 51.8412 50.3405 50.3401C51.8417 48.8389 53.8776 47.9956 56.0005 47.9956C58.1235 47.9956 60.1594 48.8389 61.6605 50.3401L128.001 116.69L194.341 50.3401C195.842 48.8389 197.878 47.9956 200.001 47.9956C202.123 47.9956 204.159 48.8389 205.661 50.3401C207.162 51.8412 208.005 53.8771 208.005 56.0001C208.005 58.123 207.162 60.1589 205.661 61.6601L139.311 128L205.661 194.34Z" fill="#222222"/>
</svg>
