<svg width="31" height="31" viewBox="0 0 31 31" fill="none" xmlns="http://www.w3.org/2000/svg">
<path d="M15.5 3.14844C13.0571 3.14844 10.669 3.87284 8.63784 5.23005C6.60664 6.58726 5.02351 8.51631 4.08865 10.7733C3.15379 13.0302 2.90919 15.5137 3.38577 17.9097C3.86236 20.3056 5.03873 22.5065 6.76613 24.2339C8.49353 25.9613 10.6944 27.1376 13.0903 27.6142C15.4863 28.0908 17.9698 27.8462 20.2267 26.9114C22.4837 25.9765 24.4127 24.3934 25.77 22.3622C27.1272 20.331 27.8516 17.9429 27.8516 15.5C27.8452 12.2261 26.5418 9.08818 24.2268 6.7732C21.9118 4.45821 18.7739 3.15484 15.5 3.14844ZM15.5 26.3984C13.3445 26.3984 11.2374 25.7593 9.44516 24.5617C7.65292 23.3642 6.25604 21.6621 5.43116 19.6707C4.60629 17.6792 4.39046 15.4879 4.81098 13.3738C5.2315 11.2597 6.26947 9.31781 7.79365 7.79364C9.31782 6.26947 11.2597 5.23149 13.3738 4.81097C15.4879 4.39045 17.6792 4.60628 19.6707 5.43116C21.6621 6.25603 23.3642 7.65291 24.5617 9.44515C25.7593 11.2374 26.3984 13.3445 26.3984 15.5C26.3952 18.3895 25.246 21.1597 23.2028 23.2028C21.1597 25.246 18.3895 26.3952 15.5 26.3984ZM11.3828 15.5C11.3828 16.3641 11.6547 17.2063 12.16 17.9074C12.6652 18.6084 13.3783 19.1326 14.198 19.4059C15.0178 19.6792 15.9028 19.6876 16.7276 19.4299C17.5524 19.1723 18.2753 18.6616 18.7938 17.9703C18.9094 17.8162 19.0815 17.7142 19.2723 17.687C19.463 17.6597 19.6568 17.7094 19.8109 17.825C19.9651 17.9406 20.067 18.1127 20.0943 18.3035C20.1215 18.4943 20.0719 18.688 19.9563 18.8422C19.2548 19.7775 18.2768 20.4683 17.1609 20.8169C16.045 21.1655 14.8476 21.1542 13.7385 20.7845C12.6294 20.4148 11.6647 19.7055 10.9811 18.757C10.2975 17.8086 9.92969 16.6691 9.92969 15.5C9.92969 14.3309 10.2975 13.1914 10.9811 12.243C11.6647 11.2945 12.6294 10.5852 13.7385 10.2155C14.8476 9.84583 16.045 9.83447 17.1609 10.1831C18.2768 10.5317 19.2548 11.2225 19.9563 12.1578C20.0135 12.2341 20.0552 12.321 20.0788 12.4134C20.1025 12.5059 20.1078 12.602 20.0943 12.6965C20.0808 12.791 20.0488 12.8818 20.0002 12.9639C19.9516 13.046 19.8873 13.1178 19.8109 13.175C19.7346 13.2322 19.6478 13.2739 19.5553 13.2976C19.4629 13.3213 19.3667 13.3265 19.2723 13.313C19.1778 13.2995 19.0869 13.2676 19.0048 13.2189C18.9227 13.1703 18.851 13.106 18.7938 13.0297C18.2753 12.3384 17.5524 11.8277 16.7276 11.5701C15.9028 11.3124 15.0178 11.3208 14.198 11.5941C13.3783 11.8674 12.6652 12.3916 12.16 13.0926C11.6547 13.7937 11.3828 14.6359 11.3828 15.5Z" fill="#222222"/>
</svg>
