<svg width="42" height="42" viewBox="0 0 97 97" fill="none" xmlns="http://www.w3.org/2000/svg">
<circle cx="48.5" cy="48.5" r="48.5" fill="#FEFEFE"/>
<path d="M48.5 0C59.5246 1.31468e-07 70.2203 3.75605 78.8243 10.6491C87.4282 17.5422 93.427 27.1609 95.832 37.9201C98.2369 48.6792 96.9045 59.9366 92.0543 69.8371C87.2042 79.7375 79.1257 87.6901 69.1503 92.3841C59.1749 97.0782 47.8979 98.2336 37.1779 95.6599C26.4579 93.0863 16.9346 86.9372 10.1775 78.226C3.4204 69.5148 -0.167187 58.7615 0.00598353 47.7382C0.179154 36.7149 4.10275 26.0796 11.1301 17.5849L14.8671 20.6764C8.54247 28.3216 5.01124 37.8934 4.85539 47.8144C4.69953 57.7353 7.92836 67.4133 14.0097 75.2534C20.0911 83.0934 28.6621 88.6277 38.3101 90.9439C47.9581 93.2602 58.1074 92.2204 67.0853 87.9957C76.0631 83.771 83.3337 76.6137 87.6989 67.7033C92.0641 58.793 93.2632 48.6613 91.0988 38.9781C88.9343 29.2948 83.5354 20.638 75.7918 14.4342C68.0483 8.23045 58.4222 4.85 48.5 4.85V0Z" fill="#7E5ABB"/>
<path d="M33.4089 47.2073C29.2485 47.2073 25.8641 50.5917 25.8641 54.7521C25.868 56.5638 26.523 58.3137 27.7095 59.6828C28.8961 61.0518 30.5352 61.9488 32.3279 62.2101C34.1206 62.4715 35.9476 62.0797 37.4756 61.1064C39.0036 60.133 40.1309 58.6429 40.6518 56.9077H31.2532V53.6743H40.889C40.35 50.0097 37.2028 47.2073 33.4089 47.2073Z" fill="#222222"/>
<path d="M63.5879 47.2073C62.661 47.2073 61.7556 47.3798 60.9365 47.6816L65.0969 56.2179L62.1867 57.6407L58.1988 49.4708C56.8623 50.8288 56.0432 52.7042 56.0432 54.7521C56.0432 58.9125 59.4275 62.2969 63.5879 62.2969C67.7483 62.2969 71.1327 58.9125 71.1327 54.7521C71.1327 50.5917 67.7483 47.2073 63.5879 47.2073Z" fill="#222222"/>
<path fill-rule="evenodd" clip-rule="evenodd" d="M53.1115 39.0374L47.9379 51.2168L44.1224 41.8182H44.726C45.6098 41.8182 46.3427 41.0853 46.3427 40.2015C46.3427 39.3177 45.6098 38.5847 44.726 38.5847H38.798C37.9142 38.5847 37.1812 39.3177 37.1812 40.2015C37.1812 41.0853 37.9142 41.8182 38.798 41.8182H40.5225L45.4374 53.6743H44.1871C43.5835 48.2205 38.992 43.9739 33.4089 43.9739C31.3695 43.9743 29.3722 44.5532 27.6488 45.6435C25.9254 46.7337 24.5467 48.2905 23.6727 50.1331C22.7988 51.9756 22.4655 54.0283 22.7116 56.0527C22.9577 58.0771 23.773 59.9902 25.063 61.5697C26.3529 63.1492 28.0645 64.3304 29.9989 64.976C31.9333 65.6216 34.0112 65.7051 35.9912 65.2169C37.9712 64.7288 39.7721 63.6889 41.1847 62.2181C42.5973 60.7472 43.5637 58.9058 43.9715 56.9077H49.0373L54.9653 42.896L56.733 46.4529C54.3402 48.4145 52.8097 51.4108 52.8097 54.7521C52.8097 60.7017 57.6383 65.5303 63.5879 65.5303C69.5375 65.5303 74.3661 60.7017 74.3661 54.7521C74.3654 52.9844 73.9302 51.244 73.0986 49.6842C72.2671 48.1243 71.0648 46.7928 69.5976 45.8068C68.1304 44.8209 66.4434 44.2108 64.6849 44.0303C62.9265 43.8497 61.1507 44.1042 59.5137 44.7714L58.0695 41.8182H67.3603L69.5159 34.2734H54.3833L52.8097 31.04H45.2649V34.2734H50.7834L53.1115 39.0374ZM25.8641 54.7521C25.8641 50.5917 29.2485 47.2073 33.4089 47.2073C37.2028 47.2073 40.35 50.0097 40.889 53.6743H31.2532V56.9077H40.6518C40.1309 58.6429 39.0036 60.133 37.4756 61.1064C35.9476 62.0797 34.1206 62.4715 32.3279 62.2101C30.5352 61.9488 28.8961 61.0518 27.7095 59.6828C26.523 58.3137 25.868 56.5638 25.8641 54.7521ZM60.9365 47.6816C61.7556 47.3798 62.661 47.2073 63.5879 47.2073C67.7483 47.2073 71.1327 50.5917 71.1327 54.7521C71.1327 58.9125 67.7483 62.2969 63.5879 62.2969C59.4275 62.2969 56.0432 58.9125 56.0432 54.7521C56.0432 52.7042 56.8623 50.8288 58.1988 49.4708C59.2679 48.772 59.8673 48.3803 60.9365 47.6816Z" fill="#222222"/>
<path d="M65.0969 56.2179L60.9365 47.6816C59.8673 48.3803 59.2679 48.772 58.1988 49.4708L62.1867 57.6407L65.0969 56.2179Z" fill="#FEFEFE"/>
<path d="M25.7344 53.9761H31.9426V50.8719L41.255 55.5281H35.0468V58.6323L25.7344 53.9761Z" fill="#FEFEFE"/>
</svg>
