<svg width="50" height="50" viewBox="0 0 50 50" fill="none" xmlns="http://www.w3.org/2000/svg">
<circle cx="25" cy="25" r="25" fill="#FEFEFE"/>
<path d="M25 0C30.4809 6.53596e-08 35.81 1.8012 40.1671 5.12639C44.5241 8.45159 47.6677 13.1165 49.1139 18.4032C50.5602 23.6899 50.229 29.3053 48.1714 34.3854C46.1138 39.4654 42.4437 43.7285 37.726 46.5186C33.0084 49.3086 27.5045 50.4709 22.0616 49.8267C16.6186 49.1825 11.5382 46.7674 7.60218 42.9532C3.66617 39.1389 1.0927 34.1368 0.277837 28.7168C-0.537028 23.2968 0.451868 17.7591 3.09234 12.9562L5.2831 14.1605C2.90668 18.4832 2.01667 23.4671 2.75005 28.3451C3.48343 33.2232 5.79955 37.725 9.34196 41.1578C12.8844 44.5907 17.4567 46.7642 22.3554 47.344C27.2541 47.9238 32.2075 46.8777 36.4534 44.3667C40.6993 41.8557 44.0024 38.0189 45.8543 33.4469C47.7061 28.8748 48.0042 23.8209 46.7025 19.0629C45.4009 14.3048 42.5717 10.1064 38.6504 7.11375C34.729 4.12108 29.9329 2.5 25 2.5L25 0Z" fill="#13CD52"/>
<path d="M17.2207 24.3337C15.0761 24.3337 13.3316 26.0782 13.3316 28.2227C13.3336 29.1566 13.6712 30.0586 14.2829 30.7643C14.8945 31.47 15.7394 31.9324 16.6635 32.0671C17.5876 32.2018 18.5293 31.9999 19.3169 31.4982C20.1046 30.9964 20.6856 30.2283 20.9542 29.3339H16.1095V27.6672H21.0764C20.7986 25.7782 19.1763 24.3337 17.2207 24.3337Z" fill="#222222"/>
<path d="M32.7769 24.3337C32.2991 24.3337 31.8324 24.4226 31.4102 24.5781L33.5547 28.9783L32.0546 29.7117L29.999 25.5004C29.3101 26.2004 28.8878 27.1671 28.8878 28.2227C28.8878 30.3673 30.6324 32.1118 32.7769 32.1118C34.9214 32.1118 36.6659 30.3673 36.6659 28.2227C36.6659 26.0782 34.9214 24.3337 32.7769 24.3337Z" fill="#222222"/>
<path fill-rule="evenodd" clip-rule="evenodd" d="M27.3767 20.1224L24.7099 26.4004L22.7431 21.5558H23.0543C23.5098 21.5558 23.8876 21.178 23.8876 20.7224C23.8876 20.2668 23.5098 19.8891 23.0543 19.8891H19.9986C19.543 19.8891 19.1652 20.2668 19.1652 20.7224C19.1652 21.178 19.543 21.5558 19.9986 21.5558H20.8875L23.4209 27.6672H22.7765C22.4653 24.8559 20.0986 22.6669 17.2207 22.6669C16.1695 22.6672 15.1399 22.9656 14.2516 23.5276C13.3632 24.0896 12.6525 24.892 12.202 25.8418C11.7516 26.7916 11.5798 27.8497 11.7066 28.8932C11.8335 29.9367 12.2538 30.9228 12.9187 31.737C13.5836 32.5511 14.4658 33.16 15.463 33.4928C16.4601 33.8256 17.5312 33.8686 18.5518 33.617C19.5724 33.3654 20.5007 32.8293 21.2288 32.0712C21.957 31.313 22.4551 30.3638 22.6654 29.3339H25.2766L28.3323 22.1114L29.2434 23.9448C28.01 24.9559 27.2211 26.5004 27.2211 28.2227C27.2211 31.2895 29.7101 33.7785 32.7769 33.7785C35.8437 33.7785 38.3327 31.2895 38.3327 28.2227C38.3323 27.3116 38.1079 26.4145 37.6793 25.6104C37.2507 24.8063 36.631 24.12 35.8747 23.6118C35.1184 23.1036 34.2488 22.7891 33.3424 22.696C32.436 22.603 31.5206 22.7342 30.6768 23.0781L29.9323 21.5558H34.7214L35.8326 17.6667H28.0322L27.2211 16H23.332V17.6667H26.1766L27.3767 20.1224ZM13.3316 28.2227C13.3316 26.0782 15.0761 24.3337 17.2207 24.3337C19.1763 24.3337 20.7986 25.7782 21.0764 27.6672H16.1095V29.3339H20.9542C20.6856 30.2283 20.1046 30.9964 19.3169 31.4982C18.5293 31.9999 17.5876 32.2018 16.6635 32.0671C15.7394 31.9324 14.8945 31.47 14.2829 30.7643C13.6712 30.0586 13.3336 29.1566 13.3316 28.2227ZM31.4102 24.5781C31.8324 24.4226 32.2991 24.3337 32.7769 24.3337C34.9214 24.3337 36.6659 26.0782 36.6659 28.2227C36.6659 30.3673 34.9214 32.1118 32.7769 32.1118C30.6324 32.1118 28.8878 30.3673 28.8878 28.2227C28.8878 27.1671 29.3101 26.2004 29.999 25.5004C30.5501 25.1402 30.8591 24.9383 31.4102 24.5781Z" fill="#222222"/>
<path d="M33.5547 28.9783L31.4102 24.5781C30.8591 24.9383 30.5501 25.1402 29.999 25.5004L32.0546 29.7117L33.5547 28.9783Z" fill="#FEFEFE"/>
<path d="M13.2656 27.8227H16.4658V26.2227L21.266 28.6228H18.0658V30.2228L13.2656 27.8227Z" fill="#FEFEFE"/>
</svg>
