<svg width="50" height="50" viewBox="0 0 50 50" fill="none" xmlns="http://www.w3.org/2000/svg">
<circle cx="25" cy="25" r="25" fill="#FEFEFE"/>
<path d="M25 0C30.3557 6.38665e-08 35.5699 1.71995 39.8745 4.90651C44.1791 8.09307 47.3466 12.5778 48.9105 17.7001C50.4743 22.8225 50.3519 28.3116 48.5611 33.3591C46.7703 38.4066 43.406 42.7456 38.9635 45.7369C34.521 48.7283 29.2353 50.214 23.8849 49.9751C18.5345 49.7362 13.4023 47.7854 9.24405 44.41C5.08584 41.0347 2.12153 36.4131 0.787704 31.2261C-0.546117 26.0391 -0.178929 20.5609 1.83518 15.5983L4.15167 16.5385C2.33896 21.0048 2.00849 25.9352 3.20893 30.6035C4.40937 35.2718 7.07726 39.4312 10.8196 42.469C14.562 45.5069 19.1811 47.2626 23.9964 47.4776C28.8118 47.6926 33.5689 46.3555 37.5671 43.6632C41.5654 40.971 44.5933 37.0659 46.205 32.5232C47.8167 27.9804 47.9269 23.0402 46.5194 18.4301C45.112 13.82 42.2612 9.78376 38.3871 6.91586C34.5129 4.04795 29.8202 2.5 25 2.5L25 0Z" fill="#13CD52"/>
<path d="M17.2207 24.3337C15.0761 24.3337 13.3316 26.0782 13.3316 28.2227C13.3336 29.1566 13.6712 30.0586 14.2829 30.7643C14.8945 31.47 15.7394 31.9324 16.6635 32.0671C17.5876 32.2018 18.5293 31.9999 19.3169 31.4982C20.1046 30.9964 20.6856 30.2283 20.9542 29.3339H16.1095V27.6672H21.0764C20.7986 25.7782 19.1763 24.3337 17.2207 24.3337Z" fill="#222222"/>
<path d="M32.7769 24.3337C32.2991 24.3337 31.8324 24.4226 31.4102 24.5781L33.5547 28.9783L32.0546 29.7117L29.999 25.5004C29.3101 26.2004 28.8878 27.1671 28.8878 28.2227C28.8878 30.3673 30.6324 32.1118 32.7769 32.1118C34.9214 32.1118 36.6659 30.3673 36.6659 28.2227C36.6659 26.0782 34.9214 24.3337 32.7769 24.3337Z" fill="#222222"/>
<path fill-rule="evenodd" clip-rule="evenodd" d="M27.3767 20.1224L24.7099 26.4004L22.7431 21.5558H23.0543C23.5098 21.5558 23.8876 21.178 23.8876 20.7224C23.8876 20.2668 23.5098 19.8891 23.0543 19.8891H19.9986C19.543 19.8891 19.1652 20.2668 19.1652 20.7224C19.1652 21.178 19.543 21.5558 19.9986 21.5558H20.8875L23.4209 27.6672H22.7765C22.4653 24.8559 20.0986 22.6669 17.2207 22.6669C16.1695 22.6672 15.1399 22.9656 14.2516 23.5276C13.3632 24.0896 12.6525 24.892 12.202 25.8418C11.7516 26.7916 11.5798 27.8497 11.7066 28.8932C11.8335 29.9367 12.2538 30.9228 12.9187 31.737C13.5836 32.5511 14.4658 33.16 15.463 33.4928C16.4601 33.8256 17.5312 33.8686 18.5518 33.617C19.5724 33.3654 20.5007 32.8293 21.2288 32.0712C21.957 31.313 22.4551 30.3638 22.6654 29.3339H25.2766L28.3323 22.1114L29.2434 23.9448C28.01 24.9559 27.2211 26.5004 27.2211 28.2227C27.2211 31.2895 29.7101 33.7785 32.7769 33.7785C35.8437 33.7785 38.3327 31.2895 38.3327 28.2227C38.3323 27.3116 38.1079 26.4145 37.6793 25.6104C37.2507 24.8063 36.631 24.12 35.8747 23.6118C35.1184 23.1036 34.2488 22.7891 33.3424 22.696C32.436 22.603 31.5206 22.7342 30.6768 23.0781L29.9323 21.5558H34.7214L35.8326 17.6667H28.0322L27.2211 16H23.332V17.6667H26.1766L27.3767 20.1224ZM13.3316 28.2227C13.3316 26.0782 15.0761 24.3337 17.2207 24.3337C19.1763 24.3337 20.7986 25.7782 21.0764 27.6672H16.1095V29.3339H20.9542C20.6856 30.2283 20.1046 30.9964 19.3169 31.4982C18.5293 31.9999 17.5876 32.2018 16.6635 32.0671C15.7394 31.9324 14.8945 31.47 14.2829 30.7643C13.6712 30.0586 13.3336 29.1566 13.3316 28.2227ZM31.4102 24.5781C31.8324 24.4226 32.2991 24.3337 32.7769 24.3337C34.9214 24.3337 36.6659 26.0782 36.6659 28.2227C36.6659 30.3673 34.9214 32.1118 32.7769 32.1118C30.6324 32.1118 28.8878 30.3673 28.8878 28.2227C28.8878 27.1671 29.3101 26.2004 29.999 25.5004C30.5501 25.1402 30.8591 24.9383 31.4102 24.5781Z" fill="#222222"/>
<path d="M33.5547 28.9783L31.4102 24.5781C30.8591 24.9383 30.5501 25.1402 29.999 25.5004L32.0546 29.7117L33.5547 28.9783Z" fill="#FEFEFE"/>
<path d="M13.2656 27.8227H16.4658V26.2227L21.266 28.6228H18.0658V30.2228L13.2656 27.8227Z" fill="#FEFEFE"/>
</svg>
