<svg width="71" height="71" viewBox="0 0 71 71" fill="none" xmlns="http://www.w3.org/2000/svg">
<path d="M56 35.2284C56.0015 35.8612 55.8393 36.4836 55.529 37.0351C55.2188 37.5866 54.7711 38.0484 54.2295 38.3756L20.6655 58.9083C20.0996 59.2548 19.4515 59.4439 18.788 59.4562C18.1246 59.4685 17.4699 59.3035 16.8916 58.9781C16.3188 58.6579 15.8416 58.1908 15.5092 57.625C15.1767 57.0591 15.001 56.415 15 55.7587V14.6982C15.001 14.0419 15.1767 13.3977 15.5092 12.8319C15.8416 12.2661 16.3188 11.799 16.8916 11.4787C17.4699 11.1534 18.1246 10.9884 18.788 11.0006C19.4515 11.0129 20.0996 11.2021 20.6655 11.5486L54.2295 32.0812C54.7711 32.4085 55.2188 32.8703 55.529 33.4218C55.8393 33.9733 56.0015 34.5957 56 35.2284Z" fill="#C2ADEA"/>
</svg>
