<svg width="63" height="63" viewBox="0 0 63 63" fill="none" xmlns="http://www.w3.org/2000/svg">
<path d="M8.36719 23.625H11.8125C12.0832 23.625 12.3047 23.4035 12.3047 23.1328V12.3047H23.1328C23.4035 12.3047 23.625 12.0832 23.625 11.8125V8.36719C23.625 8.09648 23.4035 7.875 23.1328 7.875H12.0586C9.74531 7.875 7.875 9.74531 7.875 12.0586V23.1328C7.875 23.4035 8.09648 23.625 8.36719 23.625ZM39.8672 12.3047H50.6953V23.1328C50.6953 23.4035 50.9168 23.625 51.1875 23.625H54.6328C54.9035 23.625 55.125 23.4035 55.125 23.1328V12.0586C55.125 9.74531 53.2547 7.875 50.9414 7.875H39.8672C39.5965 7.875 39.375 8.09648 39.375 8.36719V11.8125C39.375 12.0832 39.5965 12.3047 39.8672 12.3047ZM23.1328 50.6953H12.3047V39.8672C12.3047 39.5965 12.0832 39.375 11.8125 39.375H8.36719C8.09648 39.375 7.875 39.5965 7.875 39.8672V50.9414C7.875 53.2547 9.74531 55.125 12.0586 55.125H23.1328C23.4035 55.125 23.625 54.9035 23.625 54.6328V51.1875C23.625 50.9168 23.4035 50.6953 23.1328 50.6953ZM54.6328 39.375H51.1875C50.9168 39.375 50.6953 39.5965 50.6953 39.8672V50.6953H39.8672C39.5965 50.6953 39.375 50.9168 39.375 51.1875V54.6328C39.375 54.9035 39.5965 55.125 39.8672 55.125H50.9414C53.2547 55.125 55.125 53.2547 55.125 50.9414V39.8672C55.125 39.5965 54.9035 39.375 54.6328 39.375ZM55.6172 29.2852H7.38281C7.11211 29.2852 6.89062 29.5066 6.89062 29.7773V33.2227C6.89062 33.4934 7.11211 33.7148 7.38281 33.7148H55.6172C55.8879 33.7148 56.1094 33.4934 56.1094 33.2227V29.7773C56.1094 29.5066 55.8879 29.2852 55.6172 29.2852Z" fill="#FEFEFE"/>
</svg>
