<svg width="24" height="24" viewBox="0 0 24 24" fill="none" xmlns="http://www.w3.org/2000/svg">
<path d="M7.61605 8.712L10.821 6.384C11.1808 6.1207 11.6184 5.98551 12.064 6C12.6076 6.01355 13.1333 6.19611 13.5683 6.52228C14.0033 6.84846 14.3258 7.30205 14.491 7.82C14.677 8.403 14.847 8.797 15.001 9.001C15.4663 9.62199 16.0698 10.126 16.7638 10.473C17.4578 10.82 18.2231 11.0004 18.999 11V13C17.9665 13.001 16.9466 12.7731 16.0127 12.3327C15.0788 11.8922 14.2541 11.2503 13.598 10.453L12.9 14.409L14.961 16.138L17.184 22.246L15.304 22.93L13.265 17.326L9.87505 14.481C9.59667 14.2565 9.38359 13.9614 9.25801 13.6265C9.13243 13.2916 9.09895 12.9292 9.16105 12.577L9.67005 9.692L8.99305 10.184L6.86605 13.112L5.24805 11.936L7.59905 8.7L7.61605 8.712ZM13.499 5.5C12.9686 5.5 12.4599 5.28929 12.0848 4.91421C11.7098 4.53914 11.499 4.03043 11.499 3.5C11.499 2.96957 11.7098 2.46086 12.0848 2.08579C12.4599 1.71071 12.9686 1.5 13.499 1.5C14.0295 1.5 14.5382 1.71071 14.9133 2.08579C15.2883 2.46086 15.499 2.96957 15.499 3.5C15.499 4.03043 15.2883 4.53914 14.9133 4.91421C14.5382 5.28929 14.0295 5.5 13.499 5.5ZM10.529 18.681L7.31505 22.511L5.78305 21.226L8.75805 17.68L9.50405 15.5L11.295 17L10.529 18.681Z" fill="black"/>
</svg>
